<svg width="22" height="26" viewBox="0 0 22 26" fill="none" xmlns="http://www.w3.org/2000/svg">
<g opacity="0.4">
<path d="M19.5445 10.5362C19.5446 9.65536 19.3997 8.78049 19.1156 7.94668C18.6215 6.5444 17.768 5.29634 16.6405 4.32716C15.513 3.35799 14.1509 2.70163 12.6903 2.42366C12.6903 2.42366 12.7834 2.20921 12.5811 1.66298C12.225 0.659526 11.6302 0 10.9626 0C10.295 0 9.69615 0.651433 9.34413 1.65084C9.14587 2.21326 9.23488 2.42366 9.23488 2.42366V2.44389C7.77652 2.71724 6.41563 3.36913 5.28862 4.33422C4.16162 5.29931 3.3081 6.5437 2.81361 7.94263C2.52664 8.77722 2.38033 9.65369 2.38067 10.5362C2.38067 13.672 1.89917 16.5731 1.0252 18.7014C0.938847 18.9078 0.89846 19.1306 0.906845 19.3541C0.915229 19.5777 0.972185 19.7968 1.07375 19.9962C1.1771 20.193 1.31989 20.3665 1.49323 20.5057C1.66657 20.6449 1.86674 20.747 2.08125 20.8054C3.60577 21.2416 5.16331 21.5529 6.73839 21.736L7.23203 21.7927C9.67488 22.0436 12.137 22.0436 14.5799 21.7927H14.6932L15.1828 21.736C16.7654 21.5627 18.3312 21.2595 19.8642 20.8297C20.0808 20.7685 20.2824 20.6627 20.4558 20.5192C20.6293 20.3757 20.771 20.1975 20.8717 19.9962C20.9728 19.7975 21.0298 19.5793 21.0389 19.3566C21.0479 19.1338 21.0089 18.9117 20.9243 18.7055C20.026 16.5731 19.5445 13.672 19.5445 10.5362Z" fill="#EFE3C8"/>
<path d="M14.9077 22.6372L14.6406 22.6655C13.4217 22.816 12.1949 22.8931 10.9667 22.8962C9.73568 22.8991 8.50576 22.822 7.28471 22.6655L7.01766 22.6372C6.99227 22.6335 6.96637 22.6363 6.94231 22.6452C6.91825 22.6541 6.89679 22.6688 6.8799 22.6881C6.86301 22.7074 6.85121 22.7307 6.84559 22.7557C6.83997 22.7807 6.8407 22.8068 6.84772 22.8314C7.08799 23.7395 7.62187 24.5425 8.36616 25.1155C9.11046 25.6885 10.0234 25.9992 10.9627 25.9992C11.902 25.9992 12.8149 25.6885 13.5592 25.1155C14.3035 24.5425 14.8374 23.7395 15.0776 22.8314C15.0846 22.8068 15.0854 22.7807 15.0798 22.7557C15.0741 22.7307 15.0623 22.7074 15.0455 22.6881C15.0286 22.6688 15.0071 22.6541 14.983 22.6452C14.959 22.6363 14.9331 22.6335 14.9077 22.6372Z" fill="#EFE3C8"/>
</g>
</svg>
