<svg width="70" height="66" viewBox="0 0 70 66" fill="none" xmlns="http://www.w3.org/2000/svg">
<g filter="url(#filter0_d_1_160)">
<path d="M45.6569 21.6455H24.5324L24.089 19.074C24.0358 18.773 23.8782 18.5004 23.644 18.304C23.4098 18.1076 23.1138 18 22.8082 18H19.3006C18.9556 18 18.6248 18.137 18.3809 18.3809C18.137 18.6248 18 18.9556 18 19.3006C18 19.6455 18.137 19.9763 18.3809 20.2202C18.6248 20.4641 18.9556 20.6011 19.3006 20.6011H21.7047L22.5422 25.3601L23.8132 34.602C23.8804 35.1454 24.1438 35.6456 24.5539 36.0084C24.9639 36.3713 25.4924 36.5719 26.0399 36.5726H44.2381C44.7856 36.5719 45.3141 36.3713 45.7241 36.0084C46.1342 35.6456 46.3976 35.1454 46.4648 34.602L47.8836 24.2073C47.9288 23.8886 47.905 23.5639 47.8137 23.2553C47.7225 22.9466 47.566 22.6612 47.3549 22.4182C47.1437 22.1753 46.8828 21.9806 46.5899 21.8473C46.2969 21.714 45.9787 21.6452 45.6569 21.6455Z" fill="#EFE3C8"/>
<path d="M28.9466 38.4824C28.4006 38.4824 27.8668 38.6444 27.4129 38.948C26.959 39.2516 26.6054 39.683 26.3969 40.1877C26.1884 40.6924 26.1344 41.2476 26.2416 41.783C26.3489 42.3184 26.6126 42.81 26.9994 43.1954C27.3862 43.5808 27.8787 43.8428 28.4145 43.9481C28.9503 44.0535 29.5053 43.9974 30.0092 43.7871C30.5132 43.5768 30.9433 43.2217 31.2453 42.7667C31.5472 42.3117 31.7074 41.7774 31.7054 41.2313C31.7054 40.8695 31.634 40.5112 31.4952 40.1771C31.3565 39.8429 31.1531 39.5394 30.8968 39.284C30.6405 39.0286 30.3363 38.8264 30.0016 38.6888C29.667 38.5512 29.3085 38.4811 28.9466 38.4824Z" fill="#EFE3C8"/>
<path d="M40.9871 38.4828C40.4432 38.4925 39.9144 38.6628 39.467 38.9722C39.0197 39.2816 38.6738 39.7164 38.4728 40.2218C38.2718 40.7273 38.2248 41.2809 38.3375 41.813C38.4503 42.3451 38.7178 42.832 39.1065 43.2126C39.4952 43.5931 39.9877 43.8502 40.5221 43.9516C41.0565 44.053 41.6089 43.9941 42.11 43.7825C42.6111 43.5708 43.0384 43.2157 43.3382 42.7619C43.638 42.308 43.797 41.7757 43.7952 41.2317C43.7939 40.8661 43.72 40.5044 43.5777 40.1675C43.4354 39.8307 43.2276 39.5255 42.9663 39.2698C42.705 39.014 42.3955 38.8127 42.0557 38.6776C41.7159 38.5425 41.3527 38.4763 40.9871 38.4828Z" fill="#EFE3C8"/>
</g>
<defs>
<filter id="filter0_d_1_160" x="0" y="0" width="69.9059" height="65.9999" filterUnits="userSpaceOnUse" color-interpolation-filters="sRGB">
<feFlood flood-opacity="0" result="BackgroundImageFix"/>
<feColorMatrix in="SourceAlpha" type="matrix" values="0 0 0 0 0 0 0 0 0 0 0 0 0 0 0 0 0 0 127 0" result="hardAlpha"/>
<feOffset dx="2" dy="2"/>
<feGaussianBlur stdDeviation="10"/>
<feColorMatrix type="matrix" values="0 0 0 0 0.937255 0 0 0 0 0.890196 0 0 0 0 0.784314 0 0 0 0.15 0"/>
<feBlend mode="normal" in2="BackgroundImageFix" result="effect1_dropShadow_1_160"/>
<feBlend mode="normal" in="SourceGraphic" in2="effect1_dropShadow_1_160" result="shape"/>
</filter>
</defs>
</svg>
