<svg width="64" height="67" viewBox="0 0 64 67" fill="none" xmlns="http://www.w3.org/2000/svg">
<g filter="url(#filter0_d_1_41)">
<path d="M41.9037 31.5957C41.8775 31.0357 41.8425 30.4889 41.8075 29.9595C41.714 28.7266 41.1651 27.5726 40.2676 26.7222L38.1196 24.6792L31.9118 18.7645C31.3954 18.2736 30.7102 17.9999 29.9978 17.9999C29.2854 17.9999 28.6002 18.2736 28.0838 18.7645L21.8804 24.6792L19.7324 26.7222C18.8312 27.5704 18.2803 28.7254 18.1881 29.9595C18.1312 30.7426 18.0831 31.5607 18.0525 32.405C18.0175 33.3587 18 34.3518 18 35.3667C18 37.3923 18.0744 39.304 18.2056 41.0539C18.2502 41.7049 18.5171 42.3208 18.9614 42.7986C19.4058 43.2764 20.0007 43.5871 20.6467 43.6788C21.1454 43.7444 21.6748 43.8101 22.2304 43.8669C23.136 43.9588 24.1159 44.0332 25.1527 44.09C25.3431 44.1014 25.5337 44.0737 25.713 44.0087C25.8923 43.9437 26.0564 43.8428 26.1952 43.7121C26.3341 43.5814 26.4448 43.4238 26.5206 43.2488C26.5963 43.0738 26.6355 42.8852 26.6358 42.6945V35.8217C26.6358 35.1256 26.9123 34.4579 27.4046 33.9657C27.8968 33.4734 28.5645 33.1969 29.2606 33.1969H30.7393C31.4355 33.1969 32.1031 33.4734 32.5954 33.9657C33.0876 34.4579 33.3642 35.1256 33.3642 35.8217V42.6901C33.3644 42.8808 33.4037 43.0694 33.4794 43.2444C33.5552 43.4194 33.6659 43.5771 33.8047 43.7077C33.9436 43.8384 34.1077 43.9393 34.287 44.0043C34.4662 44.0693 34.6569 44.097 34.8472 44.0857C35.8841 44.0288 36.864 43.9544 37.7696 43.8626C38.3252 43.8057 38.8545 43.7401 39.3532 43.6744C39.9993 43.5828 40.5942 43.272 41.0386 42.7942C41.4829 42.3164 41.7497 41.7005 41.7944 41.0496C41.9256 39.2997 42 37.3923 42 35.3624C41.9912 34.0631 41.9606 32.7944 41.9037 31.5957Z" fill="#EFE3C8"/>
</g>
<defs>
<filter id="filter0_d_1_41" x="-1.52588e-05" y="-6.10352e-05" width="64" height="66.0926" filterUnits="userSpaceOnUse" color-interpolation-filters="sRGB">
<feFlood flood-opacity="0" result="BackgroundImageFix"/>
<feColorMatrix in="SourceAlpha" type="matrix" values="0 0 0 0 0 0 0 0 0 0 0 0 0 0 0 0 0 0 127 0" result="hardAlpha"/>
<feOffset dx="2" dy="2"/>
<feGaussianBlur stdDeviation="10"/>
<feColorMatrix type="matrix" values="0 0 0 0 0.937255 0 0 0 0 0.890196 0 0 0 0 0.784314 0 0 0 0.15 0"/>
<feBlend mode="normal" in2="BackgroundImageFix" result="effect1_dropShadow_1_41"/>
<feBlend mode="normal" in="SourceGraphic" in2="effect1_dropShadow_1_41" result="shape"/>
</filter>
</defs>
</svg>
