<svg width="20" height="20" viewBox="0 0 20 20" fill="none" xmlns="http://www.w3.org/2000/svg">
<path fill-rule="evenodd" clip-rule="evenodd" d="M6.87934 3.14188C6.67818 2.95271 6.35203 2.95271 6.15087 3.14188C5.94971 3.33106 5.94971 3.63778 6.15087 3.82696L12.7097 9.99517L6.15087 16.1634C5.94971 16.3525 5.94971 16.6593 6.15087 16.8484C6.35203 17.0376 6.67818 17.0376 6.87934 16.8484L13.6359 10.4943C13.7115 10.4716 13.7827 10.432 13.8427 10.3755C13.9535 10.2713 14.0033 10.1314 13.992 9.99517C14.0033 9.8589 13.9535 9.71901 13.8427 9.61479C13.7827 9.55835 13.7115 9.51875 13.6359 9.49598L6.87934 3.14188Z" fill="#EFE3C8"/>
</svg>
