<svg width="121" height="97" viewBox="0 0 121 97" fill="none" xmlns="http://www.w3.org/2000/svg">
<path d="M17.82 26.0359C17.82 29.2279 17.88 31.1119 18 31.6879C18.192 32.7679 18.684 33.3079 19.476 33.3079C19.764 33.3079 20.196 33.2959 20.772 33.2719C20.868 33.4399 20.916 33.6439 20.916 33.8839L20.88 34.2439C19.248 34.5319 18.048 34.9279 17.28 35.4319L16.848 35.7199C16.488 35.7199 16.068 35.3839 15.588 34.7119C15.108 34.0399 14.868 33.2839 14.868 32.4439C12.996 33.6439 10.764 34.7359 8.172 35.7199C6.42 35.3599 4.86 34.2799 3.492 32.4799C2.124 30.6559 1.44 28.5559 1.44 26.1799C1.44 24.6439 1.74 23.2759 2.34 22.0759C2.94 20.8519 3.648 19.9279 4.464 19.3039C5.28 18.6559 6.168 18.1159 7.128 17.6839C8.616 17.0119 9.828 16.6759 10.764 16.6759C10.86 16.6759 12.252 16.8679 14.94 17.2519V10.6999C14.94 8.5159 14.688 7.1839 14.184 6.7039C13.92 6.4399 13.572 6.2839 13.14 6.2359L11.844 6.0919C11.748 5.8999 11.7 5.7559 11.7 5.6599L11.844 5.1919C12.876 4.9999 13.872 4.7479 14.832 4.4359C15.792 4.0759 16.836 3.5239 17.964 2.7799C18.252 2.7799 18.444 2.8999 18.54 3.1399C18.06 4.9639 17.82 12.5959 17.82 26.0359ZM4.464 24.8119C4.464 26.9959 5.016 28.9399 6.12 30.6439C7.248 32.3239 8.496 33.1639 9.864 33.1639C11.256 33.1639 12.948 32.4199 14.94 30.9319V20.5999C14.94 19.9279 14.124 19.3639 12.492 18.9079C10.86 18.4279 9.72 18.1879 9.072 18.1879C8.064 18.1879 7.044 18.8839 6.012 20.2759C4.98 21.6439 4.464 23.1559 4.464 24.8119ZM32.5266 33.1279C34.4946 33.1279 36.2346 32.5999 37.7466 31.5439C38.0826 31.6639 38.2746 31.9159 38.3226 32.2999L34.4346 35.0359C33.8586 35.4919 32.5746 35.7199 30.5826 35.7199C28.5906 35.7199 26.8986 34.8319 25.5066 33.0559C24.1146 31.2559 23.4186 28.9879 23.4186 26.2519C23.4186 23.5159 24.1746 21.3559 25.6866 19.7719C27.1986 18.1879 28.9986 17.1559 31.0866 16.6759C32.9106 16.6759 34.5186 17.2879 35.9106 18.5119C36.7506 19.2319 37.3386 20.1679 37.6746 21.3199C37.7466 21.6079 38.0826 21.7639 38.6826 21.7879C38.8266 21.9559 38.8986 22.1359 38.8986 22.3279C38.8986 22.4959 38.8746 22.6759 38.8266 22.8679C34.6026 23.8519 30.4506 24.5359 26.3706 24.9199C26.3706 27.9919 27.2226 30.2959 28.9266 31.8319C29.8866 32.6959 31.0866 33.1279 32.5266 33.1279ZM34.7946 22.1479C34.9146 22.0759 34.9746 21.9919 34.9746 21.8959C34.9746 21.7759 34.8186 21.4399 34.5066 20.8879C34.2186 20.3119 33.7026 19.7119 32.9586 19.0879C32.2146 18.4399 31.4346 18.1159 30.6186 18.1159C29.8026 18.1159 29.2026 18.2359 28.8186 18.4759C27.4746 19.3879 26.7066 21.0439 26.5146 23.4439C27.8106 23.4439 29.2866 23.3119 30.9426 23.0479C32.5986 22.7599 33.8826 22.4599 34.7946 22.1479ZM35.1186 9.9079L28.9266 15.3079C28.7346 15.3079 28.5666 15.2599 28.4226 15.1639C28.2786 15.0439 28.1706 14.8879 28.0986 14.6959C29.9706 12.3679 31.6386 10.1599 33.1026 8.0719C34.0626 8.4559 34.7346 9.0679 35.1186 9.9079ZM44.3202 24.0199C44.3202 22.3879 44.2122 21.2359 43.9962 20.5639C43.7802 19.8679 43.2642 19.4839 42.4482 19.4119C42.1122 19.3639 41.6562 19.3279 41.0802 19.3039C41.0322 19.1359 41.0082 18.9559 41.0082 18.7639C41.0082 18.5719 41.0322 18.4279 41.0802 18.3319C42.0402 18.1639 43.0482 17.9119 44.1042 17.5759C45.6642 16.9759 46.6722 16.5559 47.1282 16.3159C47.4882 16.3159 47.6682 16.4359 47.6682 16.6759C47.3562 18.4279 47.2002 22.2679 47.2002 28.1959V37.0159C47.2002 39.4639 46.9482 41.3719 46.4442 42.7399C45.9642 44.1079 44.9802 45.3679 43.4922 46.5199L40.4682 48.8239C40.0842 48.7039 39.8922 48.4639 39.8922 48.1039L41.4762 46.5199C42.7962 45.1999 43.6002 43.6999 43.8882 42.0199C44.1762 40.3399 44.3202 37.0279 44.3202 32.0839V24.0199ZM46.3362 11.9959C45.4722 11.3959 44.8602 10.6039 44.5002 9.6199C44.7882 9.2839 45.1722 8.9359 45.6522 8.5759C46.1562 8.1919 46.5882 7.9279 46.9482 7.7839C47.8602 8.4559 48.4482 9.2599 48.7122 10.1959C48.0402 11.0599 47.2482 11.6599 46.3362 11.9959ZM65.0911 21.8959L64.9831 30.6799C64.9831 32.4319 65.5471 33.3079 66.6751 33.3079L67.9711 33.2719C68.0671 33.3919 68.1151 33.5839 68.1151 33.8479L68.0431 34.2439C66.1951 34.5799 64.8751 35.0719 64.0831 35.7199C63.5551 35.5759 63.0991 35.2519 62.7151 34.7479C62.3551 34.2199 62.1511 33.6679 62.1031 33.0919C60.1831 34.2679 58.2751 35.1439 56.3791 35.7199C55.5631 35.7199 54.7231 35.2639 53.8591 34.3519C52.9951 33.4159 52.5631 32.2519 52.5631 30.8599C52.5631 30.1639 52.7191 29.5399 53.0311 28.9879C53.3431 28.4119 53.7151 28.0159 54.1471 27.7999C55.9231 26.9119 58.5631 26.1319 62.0671 25.4599V22.0399C62.0671 20.7199 61.8511 19.7359 61.4191 19.0879C61.0111 18.4399 60.5071 18.1159 59.9071 18.1159C59.3311 18.1159 58.7071 18.2239 58.0351 18.4399C57.3631 18.6319 56.8831 19.0159 56.5951 19.5919C56.3311 20.1679 56.1991 20.9839 56.1991 22.0399C56.1991 22.1359 56.0311 22.2439 55.6951 22.3639C55.3831 22.4599 54.9751 22.5079 54.4711 22.5079C53.9911 22.5079 53.6551 22.3999 53.4631 22.1839C53.2951 21.9439 53.2111 21.5959 53.2111 21.1399C53.2111 20.2759 53.8351 19.3399 55.0831 18.3319C55.3711 18.1399 56.2111 17.8159 57.6031 17.3599C59.0191 16.9039 59.8351 16.6759 60.0511 16.6759C61.7791 16.6759 63.0511 17.1799 63.8671 18.1879C64.6831 19.1959 65.0911 20.4319 65.0911 21.8959ZM55.7671 30.6799C55.7671 31.2559 55.9951 31.8799 56.4511 32.5519C56.9071 33.2239 57.4231 33.5599 57.9991 33.5599C58.5991 33.5599 59.2831 33.3559 60.0511 32.9479C60.8191 32.5399 61.4551 32.1079 61.9591 31.6519C62.0311 30.2119 62.0671 28.5799 62.0671 26.7559C60.0511 27.0199 58.2751 27.5959 56.7391 28.4839C56.0911 28.7959 55.7671 29.5279 55.7671 30.6799ZM61.5631 15.3079L55.3711 9.9079C55.7551 9.0679 56.4271 8.4559 57.3871 8.0719C58.9711 10.2559 60.3871 12.1519 61.6351 13.7599L62.3911 14.6959C62.2951 15.1039 62.0191 15.3079 61.5631 15.3079Z" fill="#EFE3C8" fill-opacity="0.5"/>
<path d="M7.35228 42.2965L14.6483 42.4405H22.0403C25.0803 42.4405 27.5283 43.1125 29.3843 44.4565C31.2723 45.8005 32.2163 47.7685 32.2163 50.3605C32.2163 52.4405 31.5123 54.2005 30.1043 55.6405C28.6963 57.0805 27.2403 57.9925 25.7363 58.3765C28.3603 58.8565 30.3923 59.8805 31.8323 61.4485C33.3043 63.0165 34.0403 65.0645 34.0403 67.5925C34.0403 70.5365 32.7443 72.8405 30.1523 74.5045C27.5923 76.1685 24.3923 77.0005 20.5523 77.0005C13.5443 77.0005 9.00028 77.1285 6.92028 77.3845C6.76028 77.1925 6.68028 76.9205 6.68028 76.5685L6.72828 76.1845C8.39228 75.8005 9.48028 75.2085 9.99228 74.4085C10.4083 73.7685 10.6803 72.9685 10.8083 72.0085C11.1923 69.0965 11.3843 65.1285 11.3843 60.1045C11.3843 49.5765 11.0963 44.2165 10.5203 44.0245C9.91228 43.8645 8.85628 43.7845 7.35228 43.7845C7.28828 43.5605 7.25628 43.3045 7.25628 43.0165C7.25628 42.7285 7.28828 42.4885 7.35228 42.2965ZM15.5123 59.1445V68.7445C15.5123 71.7525 15.6083 73.8645 15.8003 75.0805C16.9523 75.2085 18.2963 75.2725 19.8323 75.2725C23.1283 75.2725 25.5763 74.7125 27.1763 73.5925C28.8083 72.4725 29.6243 70.6645 29.6243 68.1685C29.6243 65.6405 28.8243 63.5445 27.2243 61.8805C25.6243 60.2165 23.5443 59.3845 20.9843 59.3845H18.9683C18.7763 59.1605 18.6803 58.8885 18.6803 58.5685L18.9683 57.6085H20.3603C25.4803 57.6085 28.0403 55.3845 28.0403 50.9365C28.0403 48.7285 27.3683 47.0485 26.0243 45.8965C24.6803 44.7125 22.9043 44.1204 20.6963 44.1204C18.5203 44.1204 16.9843 44.1844 16.0883 44.3125C15.7043 45.8485 15.5123 50.7925 15.5123 59.1445ZM40.8882 55.4485L39.0162 55.4965C38.8562 55.3365 38.7762 55.0965 38.7762 54.7765L38.8722 54.2005C41.0482 53.9125 42.8242 53.4645 44.2002 52.8565C44.6482 52.6645 44.9202 52.5685 45.0162 52.5685C45.3682 52.5685 45.7682 53.2085 46.2162 54.4885C46.6642 55.7365 46.9362 56.9845 47.0322 58.2325C49.4322 55.7365 51.6082 53.8485 53.5602 52.5685C54.8402 52.5685 55.8962 52.9525 56.7282 53.7205C57.5602 54.4565 57.9762 55.3845 57.9762 56.5045C57.9762 57.7845 56.8402 58.4245 54.5682 58.4245C54.0882 56.7285 53.2722 55.8805 52.1202 55.8805C51.3522 55.8805 49.7522 57.2085 47.3202 59.8645C47.1282 62.2965 47.0322 66.1685 47.0322 71.4805C47.0322 74.1365 47.2402 75.4805 47.6562 75.5125C48.3922 75.6085 49.6882 75.6565 51.5442 75.6565C51.6402 75.8805 51.6882 76.1365 51.6882 76.4245C51.6882 76.7125 51.6402 76.9525 51.5442 77.1445L46.1682 77.0005C43.5442 77.0005 41.2242 77.1285 39.2082 77.3845C39.0482 77.1925 38.9682 76.9205 38.9682 76.5685L39.0162 76.1845C40.7122 75.8645 41.8002 75.3685 42.2802 74.6965C42.6322 74.1845 42.8882 73.3685 43.0482 72.2485C43.2082 71.0965 43.2882 68.8565 43.2882 65.5285C43.2882 62.2005 43.2722 60.3605 43.2402 60.0085C43.2402 59.6565 43.2242 59.1925 43.1922 58.6165C43.1602 58.0405 43.0962 57.6085 43.0002 57.3205C42.9042 57.0325 42.7602 56.7125 42.5682 56.3605C42.2482 55.7525 41.6882 55.4485 40.8882 55.4485ZM71.4315 74.5045C74.0555 74.5045 76.3755 73.8005 78.3915 72.3925C78.8395 72.5525 79.0955 72.8885 79.1595 73.4005L73.9755 77.0485C73.2075 77.6565 71.4955 77.9605 68.8395 77.9605C66.1835 77.9605 63.9275 76.7765 62.0715 74.4085C60.2155 72.0085 59.2875 68.9845 59.2875 65.3365C59.2875 61.6885 60.2955 58.8085 62.3115 56.6965C64.3275 54.5845 66.7275 53.2085 69.5115 52.5685C71.9435 52.5685 74.0875 53.3845 75.9435 55.0165C77.0635 55.9765 77.8475 57.2245 78.2955 58.7605C78.3915 59.1445 78.8395 59.3525 79.6395 59.3845C79.8315 59.6085 79.9275 59.8485 79.9275 60.1045C79.9275 60.3285 79.8955 60.5685 79.8315 60.8245C74.1995 62.1365 68.6635 63.0485 63.2235 63.5605C63.2235 67.6565 64.3595 70.7285 66.6315 72.7765C67.9115 73.9285 69.5115 74.5045 71.4315 74.5045ZM74.4555 59.8645C74.6155 59.7685 74.6955 59.6565 74.6955 59.5285C74.6955 59.3685 74.4875 58.9205 74.0715 58.1845C73.6875 57.4165 72.9995 56.6165 72.0075 55.7845C71.0155 54.9205 69.9755 54.4885 68.8875 54.4885C67.7995 54.4885 66.9995 54.6485 66.4875 54.9685C64.6955 56.1845 63.6715 58.3925 63.4155 61.5925C65.1435 61.5925 67.1115 61.4165 69.3195 61.0645C71.5275 60.6805 73.2395 60.2805 74.4555 59.8645ZM111.636 53.1925L115.812 53.3365C116.964 53.3365 118.308 53.2245 119.844 53.0005C120.068 53.4165 120.18 53.8165 120.18 54.2005C119.316 54.5845 118.708 54.9525 118.356 55.3045C117.268 56.4565 116.164 58.4245 115.044 61.2085L108.324 77.9605H107.604L100.5 60.0565L93.5404 77.9605H92.8204L85.9084 61.1124C84.4684 57.6565 83.4924 55.6885 82.9804 55.2085C82.5004 54.6965 81.9244 54.3285 81.2524 54.1045C81.2204 54.0085 81.2044 53.8325 81.2044 53.5765C81.2044 53.3205 81.3004 53.0805 81.4924 52.8565C83.7004 53.1765 85.4124 53.3365 86.6284 53.3365L90.6604 53.1925C90.7564 53.3525 90.8044 53.5925 90.8044 53.9125L90.6604 54.6805C89.6684 54.6805 88.9644 54.7125 88.5484 54.7765C88.7724 56.6005 89.4924 59.0805 90.7084 62.2164L94.2604 71.3845L100.884 53.3365H102.18L109.092 71.3845L112.5 62.6485C113.62 59.8645 114.356 57.2885 114.708 54.9205C114.068 54.8245 113.044 54.7445 111.636 54.6805C111.572 54.4565 111.54 54.2005 111.54 53.9125C111.54 53.5925 111.572 53.3525 111.636 53.1925Z" fill="#EFE3C8"/>
</svg>
