<svg width="20" height="20" viewBox="0 0 20 20" fill="none" xmlns="http://www.w3.org/2000/svg">
<path fill-rule="evenodd" clip-rule="evenodd" d="M19.5264 17.2395L15.6639 13.377C16.8601 11.6119 17.3552 9.46429 17.0527 7.35364C16.7502 5.24299 15.6717 3.32092 14.0278 1.96288C12.384 0.604837 10.293 -0.0916302 8.16317 0.0095178C6.03335 0.110666 4.01772 1.00216 2.51001 2.50987C1.0023 4.01759 0.110803 6.03321 0.00965513 8.16304C-0.0914929 10.2929 0.604975 12.3839 1.96302 14.0277C3.32106 15.6715 5.24312 16.75 7.35378 17.0526C9.46443 17.3551 11.6121 16.8599 13.3772 15.6638L17.2397 19.5263C17.5429 19.8295 17.9542 19.9999 18.383 19.9999C18.8119 19.9999 19.2232 19.8295 19.5264 19.5263C19.8296 19.223 20 18.8117 20 18.3829C20 17.9541 19.8296 17.5428 19.5264 17.2395ZM8.56745 14.2864C7.43569 14.2868 6.32923 13.9516 5.38802 13.3231C4.44682 12.6946 3.71316 11.8011 3.27985 10.7556C2.84655 9.71004 2.73306 8.55949 2.95374 7.44946C3.17443 6.33943 3.71938 5.31978 4.51965 4.51951C5.31992 3.71924 6.33956 3.17429 7.4496 2.95361C8.55963 2.73292 9.71017 2.84641 10.7557 3.27972C11.8012 3.71302 12.6947 4.44668 13.3232 5.38789C13.9517 6.32909 14.287 7.43555 14.2865 8.56731C14.2865 10.0841 13.684 11.5388 12.6114 12.6113C11.5389 13.6838 10.0842 14.2864 8.56745 14.2864Z" fill="#EFE3C8" fill-opacity="0.5"/>
</svg>
